<?xml version="1.0" ?><!DOCTYPE svg  PUBLIC '-//W3C//DTD SVG 1.1//EN'  'http://www.w3.org/Graphics/SVG/1.1/DTD/svg11.dtd'><svg enable-background="new 0 0 24 24" height="24px" id="Layer_1" version="1.1" viewBox="0 0 24 24" width="24px" xml:space="preserve" xmlns="http://www.w3.org/2000/svg" xmlns:xlink="http://www.w3.org/1999/xlink"><g><path d="M21.9,2.1c-2.7-2.7-7.2-2.7-9.9,0L2.1,12c-2.7,2.7-2.7,7.2,0,9.9c2.7,2.7,7.2,2.7,9.9,0l9.9-9.9   C24.6,9.3,24.6,4.8,21.9,2.1z M10.6,20.5c-2,2-5.1,2-7.1,0s-2-5.1,0-7.1l4.2-4.2l7.1,7.1L10.6,20.5z M20.5,10.6l-4.2,4.2L9.2,7.8   l4.2-4.2c2-2,5.1-2,7.1,0S22.4,8.6,20.5,10.6z"/><path d="M19.8,4.2l-0.7,0.7c1.2,1.2,1.2,3.1,0,4.2l0.7,0.7C21.3,8.3,21.3,5.8,19.8,4.2z"/></g></svg>